<svg width="30" height="30" viewBox="0 0 30 30" fill="none" xmlns="http://www.w3.org/2000/svg">
<path d="M25.2541 13.6318H22.8811C22.7463 13.6318 22.6174 13.6904 22.5266 13.793L16.1135 21.1846V4.6875C16.1135 4.55859 16.008 4.45312 15.8791 4.45312H14.1213C13.9924 4.45312 13.8869 4.55859 13.8869 4.6875V21.1846L7.47384 13.793C7.38595 13.6904 7.25705 13.6318 7.11935 13.6318H4.7463C4.54709 13.6318 4.43869 13.8691 4.57052 14.0186L14.2942 25.2246C14.3821 25.326 14.4907 25.4073 14.6128 25.4631C14.7349 25.5188 14.8675 25.5476 15.0017 25.5476C15.1359 25.5476 15.2685 25.5188 15.3906 25.4631C15.5126 25.4073 15.6213 25.326 15.7092 25.2246L25.4299 14.0186C25.5617 13.8662 25.4533 13.6318 25.2541 13.6318Z" fill="black"/>
</svg>
